<svg width="161" height="245" viewBox="0 0 161 245" fill="none" xmlns="http://www.w3.org/2000/svg">
<rect x="2" y="2" width="157" height="241" rx="78.5" stroke="black" stroke-width="4"/>
<path d="M83.5 32C83.5 30.067 81.933 28.5 80 28.5C78.067 28.5 76.5 30.067 76.5 32L83.5 32ZM77.5251 186.475C78.892 187.842 81.108 187.842 82.4749 186.475L104.749 164.201C106.116 162.834 106.116 160.618 104.749 159.251C103.382 157.884 101.166 157.884 99.799 159.251L80 179.05L60.201 159.251C58.8342 157.884 56.6181 157.884 55.2513 159.251C53.8844 160.618 53.8844 162.834 55.2513 164.201L77.5251 186.475ZM76.5 32L76.5 184L83.5 184L83.5 32L76.5 32Z" fill="black"/>
</svg>
